<?xml version="1.0" encoding="UTF-8" standalone="no"?>
<svg 
    width="100%" 
    height="100%" 
    viewBox="0 0 1366 1366" 
    version="1.1" 
    xmlns="http://www.w3.org/2000/svg" 
    xml:space="preserve" 
    style="fill:none;stroke:#000;stroke-width:17px; fill-rule:evenodd;clip-rule:evenodd;stroke-miterlimit:10;">
    <path d="M1189.45,526.479c-36.403,-118.472 -113.18,-219.264 -214.28,-286.321l-291.144,104.448l505.424,181.873Z"/>
    <path d="M152.115,673.83c-0.069,3.537 -0.114,8.081 -0.114,11.636c-0,128.541 45.73,247.2 121.805,339.2l293.755,0l-415.446,-350.836Z"/>
    <path d="M795.325,1024.67l1.179,-0l-1.179,-0l-217.56,181.19c33.823,6.767 68.804,7.992 104.618,7.992c90.27,0 175.269,-23.06 249.68,-62.837l50.505,-284.609l-187.243,158.264Z"/>
    <path d="M567.561,1024.67l1.588,1.333l-1.588,-1.333l-293.756,-0c76.09,90.666 179.872,156.232 301.294,180.524l220.226,-180.524l-227.764,-0Z" />
    <path d="M1189.45,526.479l-505.424,-181.873l-224.475,80.529l224.475,-80.529l-1.641,-0.591l1.641,0.591l291.144,-104.448c-83.907,-55.652 -184.557,-88.075 -292.785,-88.075c-22.955,0 -45.57,1.459 -67.756,4.288l-273.644,474.158l273.644,-474.158c-131.307,16.744 -247.608,81.503 -330.762,176.112l98.296,531.636l-98.296,-531.636c-79.908,90.918 -129.193,211.403 -131.75,341.347l415.446,350.837l227.764,0l187.243,-158.514l41.215,-234.68l-41.215,233.18l0.037,-0.282l-0.037,-0.093l-50.505,286.296c107.888,-57.673 193.501,-151.585 240.61,-265.448l-267.457,-459.999l267.457,459.976c25.831,-62.43 40.092,-130.872 40.092,-202.633c0,-54.288 -8.164,-106.671 -23.317,-155.991Z"/>
</svg>