<?xml version="1.0" encoding="utf-8"?>
<svg version="1.1" width="62.875" height="63.3438" xmlns="http://www.w3.org/2000/svg">
    <g>
        <rect height="63.3438" opacity="0" width="62.875" x="0" y="0"/>
        <path d="M49.0938 42.4375C31.875 42.4375 21.1875 32.0625 21.1875 15.4062C21.1875 10.6562 21.9688 6.46875 23.125 4.21875C23.5938 3.3125 23.6875 2.875 23.6875 2.25C23.6875 1.21875 22.7188 0 21.4062 0C21.1562 0 20.5625 0.09375 19.6875 0.4375C8.125 5.125 0 17.3125 0 30.4375C0 49.4062 13.7812 63.2188 32.75 63.2188C46.3438 63.2188 57.375 56.0938 62.4375 44.4062C62.8125 43.5938 62.875 42.9062 62.875 42.5625C62.875 41.2812 61.7812 40.4062 60.8125 40.4062C60.3125 40.4062 59.9375 40.4375 59.1875 40.7188C56.6562 41.75 52.8438 42.4375 49.0938 42.4375ZM4.90625 30.2188C4.90625 20.5 9.96875 11.25 18.0625 6.15625C17.0625 9.0625 16.5312 12.2812 16.5312 15.8438C16.5312 35.375 28.4375 47 48.375 47C51.5938 47 54.3125 46.625 56.9062 45.7188C52.1562 53.5625 43 58.3438 32.9375 58.3438C16.7188 58.3438 4.90625 46.5312 4.90625 30.2188Z" style="fill: rgb(255, 255, 255);"/>
    </g>
</svg>