<?xml version="1.0" encoding="utf-8"?>
<svg version="1.1" width="62.9" height="63.3" xmlns="http://www.w3.org/2000/svg">
    <g>
        <rect height="63.3" width="62.9" x="0" y="0" fill="none"/>
        <path d="M 49.1 42.4 C 31.9 42.4 21.2 32.1 21.2 15.4 C 21.2 10.7 22 6.5 23.1 4.2 C 23.6 3.3 23.7 2.9 23.7 2.3 C 23.7 1.2 22.7 0 21.4 0 C 21.2 0 20.6 0.1 19.7 0.4 C 8.1 5.1 0 17.3 0 30.4 C 0 49.4 13.8 63.2 32.8 63.2 C 46.3 63.2 57.4 56.1 62.4 44.4 C 62.8 43.6 62.9 42.9 62.9 42.6 C 62.9 41.3 61.8 40.4 60.8 40.4 C 60.3 40.4 59.9 40.4 59.2 40.7 C 56.7 41.8 52.8 42.4 49.1 42.4 Z M 4.9 30.2 C 4.9 20.5 10 11.3 18.1 6.2 C 17.1 9.1 16.5 12.3 16.5 15.8 C 16.5 35.4 28.4 47 48.4 47 C 51.6 47 54.3 46.6 56.9 45.7 C 52.2 53.6 43 58.3 32.9 58.3 C 16.7 58.3 4.9 46.5 4.9 30.2 Z" style="fill: rgb(255, 255, 255)"/>
    </g>
</svg>