<?xml version="1.0" encoding="utf-8"?>
<svg version="1.1" width="67.5938" height="67.8438" xmlns="http://www.w3.org/2000/svg">
    <g>
        <rect height="67.8438" width="67.5938" x="0" y="0" fill="none"/>
        <path d="M33.7812 49.8438C42.4688 49.8438 49.6875 42.625 49.6875 33.9062C49.6875 25.1562 42.4688 17.9375 33.7812 17.9375C25.0938 17.9375 17.875 25.1562 17.875 33.9062C17.875 42.625 25.0938 49.8438 33.7812 49.8438ZM33.7812 45.0625C27.6875 45.0625 22.625 40 22.625 33.9062C22.625 27.7812 27.6875 22.7188 33.7812 22.7188C39.875 22.7188 44.9375 27.7812 44.9375 33.9062C44.9375 40 39.875 45.0625 33.7812 45.0625ZM33.8125 12.1562C35.2812 12.1562 36.5 10.9375 36.5 9.4375L36.5 2.71875C36.5 1.21875 35.2812 0 33.8125 0C32.3125 0 31.0938 1.21875 31.0938 2.71875L31.0938 9.4375C31.0938 10.9375 32.3125 12.1562 33.8125 12.1562ZM49.125 18.5625C50.1875 19.5938 51.9062 19.625 52.9688 18.5625L57.75 13.7812C58.7812 12.75 58.7812 11 57.75 9.9375C56.7188 8.90625 55 8.90625 53.9375 9.9375L49.125 14.75C48.0938 15.8125 48.0938 17.5312 49.125 18.5625ZM55.4688 33.9062C55.4688 35.375 56.7188 36.5938 58.1875 36.5938L64.9062 36.5938C66.375 36.5938 67.5938 35.375 67.5938 33.9062C67.5938 32.4375 66.375 31.1875 64.9062 31.1875L58.1875 31.1875C56.7188 31.1875 55.4688 32.4375 55.4688 33.9062ZM49.125 49.25C48.0938 50.3125 48.0938 52.0312 49.125 53.0625L53.9375 57.9062C55 58.9062 56.7188 58.875 57.75 57.875C58.7812 56.8125 58.7812 55.0938 57.75 54.0625L52.9375 49.25C51.9062 48.25 50.1875 48.25 49.125 49.25ZM33.8125 55.6562C32.3125 55.6562 31.0938 56.875 31.0938 58.3438L31.0938 65.0938C31.0938 66.5625 32.3125 67.7812 33.8125 67.7812C35.2812 67.7812 36.5 66.5625 36.5 65.0938L36.5 58.3438C36.5 56.875 35.2812 55.6562 33.8125 55.6562ZM18.4688 49.25C17.4062 48.25 15.6562 48.25 14.625 49.25L9.84375 54.0312C8.8125 55.0625 8.8125 56.7812 9.8125 57.8438C10.8438 58.8438 12.5938 58.875 13.6562 57.875L18.4375 53.0625C19.4688 52.0312 19.4688 50.3125 18.4688 49.25ZM12.125 33.9062C12.125 32.4375 10.875 31.1875 9.40625 31.1875L2.6875 31.1875C1.21875 31.1875 0 32.4375 0 33.9062C0 35.375 1.21875 36.5938 2.6875 36.5938L9.40625 36.5938C10.875 36.5938 12.125 35.375 12.125 33.9062ZM18.4375 18.5625C19.4688 17.5625 19.4688 15.7812 18.4688 14.75L13.6875 9.9375C12.6562 8.9375 10.9062 8.90625 9.875 9.9375C8.84375 11 8.84375 12.75 9.84375 13.75L14.625 18.5625C15.6562 19.5938 17.375 19.5938 18.4375 18.5625Z" style="fill: rgb(255, 255, 255);"/>
    </g>
</svg>